<?xml version="1.0" encoding="UTF-8" standalone="no"?>
<!-- Created with Inkscape (http://www.inkscape.org/) -->

<svg
   width="100"
   height="100"
   viewBox="0 0 26.458333 26.458333"
   version="1.1"
   id="svg5"
   inkscape:version="1.2.2 (732a01da63, 2022-12-09)"
   sodipodi:docname="10d.svg"
   xml:space="preserve"
   xmlns:inkscape="http://www.inkscape.org/namespaces/inkscape"
   xmlns:sodipodi="http://sodipodi.sourceforge.net/DTD/sodipodi-0.dtd"
   xmlns:xlink="http://www.w3.org/1999/xlink"
   xmlns="http://www.w3.org/2000/svg"
   xmlns:svg="http://www.w3.org/2000/svg"><sodipodi:namedview
     id="namedview7"
     pagecolor="#ffffff"
     bordercolor="#000000"
     borderopacity="0.25"
     inkscape:showpageshadow="2"
     inkscape:pageopacity="0.0"
     inkscape:pagecheckerboard="0"
     inkscape:deskcolor="#d1d1d1"
     inkscape:document-units="mm"
     showgrid="false"
     inkscape:zoom="3.0224012"
     inkscape:cx="55.419513"
     inkscape:cy="45.659061"
     inkscape:window-width="1366"
     inkscape:window-height="705"
     inkscape:window-x="-8"
     inkscape:window-y="-8"
     inkscape:window-maximized="1"
     inkscape:current-layer="layer1" /><defs
     id="defs2"><linearGradient
       inkscape:collect="always"
       id="linearGradient21398"><stop
         style="stop-color:#f2f2f2;stop-opacity:1;"
         offset="0"
         id="stop21394" /><stop
         style="stop-color:#a6a6a6;stop-opacity:1;"
         offset="1"
         id="stop21396" /></linearGradient><linearGradient
       inkscape:collect="always"
       id="linearGradient20652"><stop
         style="stop-color:#f2f2f2;stop-opacity:1;"
         offset="0"
         id="stop20648" /><stop
         style="stop-color:#a6a6a6;stop-opacity:1;"
         offset="1"
         id="stop20650" /></linearGradient><filter
       inkscape:label="Cracked Lava"
       inkscape:menu="Materials"
       inkscape:menu-tooltip="A volcanic texture, a little like leather"
       style="color-interpolation-filters:sRGB;"
       id="filter13028"
       x="-1.2507575"
       y="-1.2211592"
       width="3.6241384"
       height="3.5620399"><feGaussianBlur
         result="result0"
         in="SourceGraphic"
         stdDeviation="0.5"
         id="feGaussianBlur12996" /><feTurbulence
         baseFrequency="0.042"
         seed="488"
         numOctaves="7"
         result="result1"
         id="feTurbulence12998" /><feDisplacementMap
         result="result5"
         xChannelSelector="R"
         scale="0"
         in2="result1"
         in="result1"
         yChannelSelector="G"
         id="feDisplacementMap13000" /><feComposite
         result="result2"
         operator="in"
         in2="result5"
         in="result0"
         id="feComposite13002" /><feSpecularLighting
         lighting-color="rgb(255,230,136)"
         surfaceScale="2"
         result="result4"
         specularConstant="2"
         specularExponent="65"
         in="result2"
         id="feSpecularLighting13006"><feDistantLight
           elevation="62"
           azimuth="225"
           id="feDistantLight13004" /></feSpecularLighting><feComposite
         k1="2.5"
         k3="1"
         k2="-0.5"
         in2="result2"
         in="result4"
         operator="arithmetic"
         result="result91"
         id="feComposite13008" /><feBlend
         result="fbSourceGraphic"
         mode="multiply"
         in2="result91"
         id="feBlend13010" /><feColorMatrix
         values="1 0 0 -1 0 1 0 1 -1 0 1 0 0 -1 0 -2 -0.5 0 5 -2"
         in="fbSourceGraphic"
         result="fbSourceGraphicAlpha"
         id="feColorMatrix13012" /><feGaussianBlur
         stdDeviation="8"
         in="fbSourceGraphicAlpha"
         result="result0"
         id="feGaussianBlur13014" /><feOffset
         dx="2"
         dy="2"
         in="result0"
         result="result3"
         id="feOffset13016" /><feSpecularLighting
         in="result0"
         result="result1"
         lighting-color="rgb(255,255,255)"
         surfaceScale="4"
         specularConstant="0.8"
         specularExponent="15"
         id="feSpecularLighting13020"><fePointLight
           x="-5000"
           y="-10000"
           z="20000"
           id="fePointLight13018" /></feSpecularLighting><feComposite
         in2="fbSourceGraphicAlpha"
         in="result1"
         result="result2"
         operator="in"
         id="feComposite13022" /><feComposite
         in="fbSourceGraphic"
         result="result4"
         operator="arithmetic"
         k2="2"
         k3="2"
         in2="result2"
         id="feComposite13024" /><feBlend
         mode="darken"
         in2="result4"
         id="feBlend13026" /></filter><radialGradient
       inkscape:collect="always"
       xlink:href="#linearGradient20652"
       id="radialGradient20654"
       cx="11.970836"
       cy="6.8637868"
       fx="11.970836"
       fy="6.8637868"
       r="8.8683141"
       gradientTransform="matrix(1,0,0,0.57585077,-2.8156223,11.056463)"
       gradientUnits="userSpaceOnUse" /><filter
       style="color-interpolation-filters:sRGB;"
       x="-0.45359982"
       width="1.9071997"
       y="-0.51259434"
       height="2.0251887"
       inkscape:label="Ink Blot"
       id="filter21029"><feGaussianBlur
         in="SourceGraphic"
         stdDeviation="2.53168 1.3609"
         result="blur1"
         id="feGaussianBlur21019" /><feTurbulence
         type="fractalNoise"
         baseFrequency="0.2425"
         numOctaves="2"
         seed="40"
         result="turbulence"
         id="feTurbulence21021" /><feDisplacementMap
         in="blur1"
         in2="turbulence"
         xChannelSelector="R"
         yChannelSelector="G"
         scale="6.06061"
         result="map"
         id="feDisplacementMap21023" /><feGaussianBlur
         in="map"
         stdDeviation="0.820541"
         result="blur2"
         id="feGaussianBlur21025" /><feComposite
         in="blur2"
         in2="map"
         operator="over"
         result="composite"
         id="feComposite21027" /></filter><radialGradient
       inkscape:collect="always"
       xlink:href="#linearGradient21398"
       id="radialGradient21400"
       cx="13.684354"
       cy="18.865478"
       fx="13.684354"
       fy="18.865478"
       r="10.160385"
       gradientTransform="matrix(1,0,0,0.43274134,3.4189699,10.601049)"
       gradientUnits="userSpaceOnUse" /><filter
       style="color-interpolation-filters:sRGB;"
       x="-0.37464332"
       width="1.7492866"
       y="-0.74284632"
       height="2.4856926"
       inkscape:label="Ink Blot"
       id="filter23071"><feGaussianBlur
         in="SourceGraphic"
         stdDeviation="1.45096 1.00066"
         result="blur1"
         id="feGaussianBlur23061" /><feTurbulence
         type="fractalNoise"
         baseFrequency="0.3031"
         numOctaves="2"
         seed="22"
         result="turbulence"
         id="feTurbulence23063" /><feDisplacementMap
         in="blur1"
         in2="turbulence"
         xChannelSelector="R"
         yChannelSelector="G"
         scale="6.36364"
         result="map"
         id="feDisplacementMap23065" /><feGaussianBlur
         in="map"
         stdDeviation="1.72114"
         result="blur2"
         id="feGaussianBlur23067" /><feComposite
         in="blur2"
         in2="map"
         operator="over"
         result="composite"
         id="feComposite23069" /></filter><filter
       style="color-interpolation-filters:sRGB;"
       x="-0.41385115"
       width="1.8277023"
       y="-0.62210927"
       height="2.2442185"
       inkscape:label="Ink Blot"
       id="filter24237"><feGaussianBlur
         in="SourceGraphic"
         stdDeviation="1.63108 0.820541"
         result="blur1"
         id="feGaussianBlur24227" /><feTurbulence
         type="fractalNoise"
         baseFrequency="0.31219"
         numOctaves="1"
         seed="30"
         result="turbulence"
         id="feTurbulence24229" /><feDisplacementMap
         in="blur1"
         in2="turbulence"
         xChannelSelector="R"
         yChannelSelector="G"
         scale="5.45455"
         result="map"
         id="feDisplacementMap24231" /><feGaussianBlur
         in="map"
         stdDeviation="1.27084"
         result="blur2"
         id="feGaussianBlur24233" /><feComposite
         in="blur2"
         in2="map"
         operator="over"
         result="composite"
         id="feComposite24235" /></filter><filter
       inkscape:collect="always"
       style="color-interpolation-filters:sRGB"
       id="filter1055"
       x="-0.072686515"
       y="-0.072686515"
       width="1.145373"
       height="1.145373"><feGaussianBlur
         inkscape:collect="always"
         stdDeviation="0.87989255"
         id="feGaussianBlur1057" /></filter><filter
       inkscape:collect="always"
       style="color-interpolation-filters:sRGB"
       id="filter1113"
       x="-0.083792859"
       y="-0.083792859"
       width="1.1675857"
       height="1.1675857"><feGaussianBlur
         inkscape:collect="always"
         stdDeviation="0.67170785"
         id="feGaussianBlur1115" /></filter><filter
       inkscape:collect="always"
       style="color-interpolation-filters:sRGB"
       id="filter1327"
       x="-0.47166911"
       y="-0.47166911"
       width="1.9433382"
       height="1.9433382"><feGaussianBlur
         inkscape:collect="always"
         stdDeviation="1.3386613"
         id="feGaussianBlur1329" /></filter><linearGradient
       inkscape:collect="always"
       xlink:href="#linearGradient44056"
       id="linearGradient44058"
       x1="8.6985407"
       y1="16.831079"
       x2="10.206352"
       y2="16.831079"
       gradientUnits="userSpaceOnUse"
       gradientTransform="matrix(1.1044808,0,0,1.1044808,-0.84349573,-1.7565126)" /><linearGradient
       inkscape:collect="always"
       id="linearGradient44056"><stop
         style="stop-color:#0090ff;stop-opacity:1;"
         offset="0"
         id="stop44052" /><stop
         style="stop-color:#0090ff;stop-opacity:0;"
         offset="1"
         id="stop44054" /></linearGradient><linearGradient
       inkscape:collect="always"
       xlink:href="#linearGradient44056"
       id="linearGradient44050"
       x1="16.843735"
       y1="17.195408"
       x2="18.351545"
       y2="17.195408"
       gradientUnits="userSpaceOnUse"
       gradientTransform="matrix(1.1044808,0,0,1.1044808,-0.95455993,-0.64586938)" /><linearGradient
       inkscape:collect="always"
       xlink:href="#linearGradient44056"
       id="linearGradient44066"
       x1="13.424765"
       y1="20.212147"
       x2="14.932576"
       y2="20.212147"
       gradientUnits="userSpaceOnUse"
       gradientTransform="matrix(1.1044808,0,0,1.1044808,-0.84349573,-1.7565126)" /><linearGradient
       inkscape:collect="always"
       xlink:href="#linearGradient44056"
       id="linearGradient45746"
       x1="14.179228"
       y1="22.826654"
       x2="15.787039"
       y2="22.826654"
       gradientUnits="userSpaceOnUse"
       gradientTransform="matrix(1.1044808,0,0,1.1044808,-0.84349573,-1.7565126)" /><linearGradient
       inkscape:collect="always"
       xlink:href="#linearGradient44056"
       id="linearGradient44074"
       x1="11.011374"
       y1="18.402103"
       x2="12.519185"
       y2="18.402103"
       gradientUnits="userSpaceOnUse"
       gradientTransform="matrix(1.1044808,0,0,1.1044808,-0.84349573,-1.7565126)" /><linearGradient
       inkscape:collect="always"
       xlink:href="#linearGradient44056"
       id="linearGradient44082"
       x1="7.3912878"
       y1="21.418842"
       x2="8.8990993"
       y2="21.418842"
       gradientUnits="userSpaceOnUse"
       gradientTransform="matrix(1.1044808,0,0,1.1044808,-0.84349573,-1.7565126)" /><linearGradient
       inkscape:collect="always"
       xlink:href="#linearGradient44056"
       id="linearGradient44090"
       x1="16.843735"
       y1="22.223307"
       x2="18.351545"
       y2="22.223307"
       gradientUnits="userSpaceOnUse"
       gradientTransform="matrix(1.1044808,0,0,1.1044808,-0.84349573,-1.7565126)" /><linearGradient
       inkscape:collect="always"
       xlink:href="#linearGradient44056"
       id="linearGradient45754"
       x1="11.363606"
       y1="22.122747"
       x2="12.971417"
       y2="22.122747"
       gradientUnits="userSpaceOnUse"
       gradientTransform="matrix(1.1044808,0,0,1.1044808,-0.84349573,-1.7565126)" /><linearGradient
       inkscape:collect="always"
       xlink:href="#linearGradient44056"
       id="linearGradient44042"
       x1="5.2795711"
       y1="18.703777"
       x2="6.7873821"
       y2="18.703777"
       gradientUnits="userSpaceOnUse"
       gradientTransform="matrix(1.1044808,0,0,1.1044808,-0.84349573,-1.7565126)" /><linearGradient
       inkscape:collect="always"
       xlink:href="#linearGradient44056"
       id="linearGradient45756"
       x1="8.8496561"
       y1="23.631117"
       x2="10.457467"
       y2="23.631117"
       gradientUnits="userSpaceOnUse"
       gradientTransform="matrix(1.1044808,0,0,1.1044808,-0.84349573,-1.7565126)" /></defs><g
     inkscape:label="Layer 1"
     inkscape:groupmode="layer"
     id="layer1"><g
       id="g2060"
       transform="matrix(0.50180204,0,0,0.50180204,11.020399,1.75905)"><path
         sodipodi:type="star"
         style="fill:#ff9300;fill-opacity:1;stroke:#000000;stroke-width:0;stroke-linecap:round;stroke-linejoin:round;paint-order:stroke fill markers;filter:url(#filter1055)"
         id="path234"
         inkscape:flatsided="false"
         sodipodi:sides="21"
         sodipodi:cx="7.146791"
         sodipodi:cy="7.3748803"
         sodipodi:r1="14.577294"
         sodipodi:r2="5.3452096"
         sodipodi:arg1="0.78539816"
         sodipodi:arg2="0.93499781"
         inkscape:rounded="-2.4286129e-17"
         inkscape:randomized="-8.3960616e-16"
         d="m 17.454495,17.682584 -7.133611,-6.00696 3.637419,8.587267 -5.0461012,-7.842756 0.9446775,9.277906 -2.5102245,-8.981689 -1.8320029,9.144164 0.2486971,-9.32256 -4.4459017,8.197922 2.9855207,-8.835079 -6.6647626,6.523258 5.4570679,-7.562564 -8.2914302,4.268976 7.4437305,-5.618082 -9.1813677,1.635375 8.768985,-3.1744081 -9.2555004,-1.143536 9.3150767,-0.4486741 -8.5072414,-3.8208385 9.0334831,2.3169263 -7.0030766,-6.1586429 7.9492247,4.8766577 -4.8766577,-7.9492247 6.1586429,7.0030765 -2.3169264,-9.033483 3.8208387,8.5072414 0.448674,-9.3150768 1.1435361,9.2555005 3.1744074,-8.7689851 -1.6353743,9.1813677 5.6180813,-7.4437305 -4.268975,8.2914302 7.562564,-5.4570679 -6.523259,6.6647626 8.83508,-2.9855208 -8.197922,4.4459018 9.322559,-0.2486972 -9.144163,1.832003 8.981689,2.5102239 -9.277907,-0.9446769 7.842756,5.0461019 -8.587266,-3.637419 z"
         inkscape:transform-center-x="-0.033963133"
         inkscape:transform-center-y="0.033963131"
         transform="translate(6.0484125,5.8203231)" /><path
         sodipodi:type="star"
         style="fill:#ffff00;fill-opacity:1;stroke:#000000;stroke-width:0;stroke-linecap:round;stroke-linejoin:round;paint-order:stroke fill markers;filter:url(#filter1113)"
         id="path1111"
         inkscape:flatsided="false"
         sodipodi:sides="21"
         sodipodi:cx="7.859405"
         sodipodi:cy="6.8789344"
         sodipodi:r1="9.6532726"
         sodipodi:r2="3.5396669"
         sodipodi:arg1="0.78539816"
         sodipodi:arg2="0.93499781"
         inkscape:rounded="-2.4286129e-17"
         inkscape:randomized="-8.3960616e-16"
         d="M 14.6853,13.704829 9.9613307,9.7269425 12.370077,15.413541 9.0284829,10.219967 9.6540605,16.363916 7.9917574,10.416126 6.7785815,16.471509 6.9432718,10.29799 3.9991383,15.72676 5.9761887,9.876056 1.5626969,14.195842 5.1764376,9.1878145 -0.31425448,12.014785 4.61508,8.294419 -1.4649403,9.3773852 4.3419948,7.2752513 -1.7871171,6.517987 4.381447,6.2208692 -1.2521581,3.6906606 4.729931,5.2249591 0.0924033,1.1466263 5.3564826,4.3760119 2.1270969,-0.88806732 6.2054297,3.7494604 4.6711312,-2.2326287 7.2013399,3.4009764 7.4984576,-2.7675878 8.255722,3.3615242 10.357856,-2.445411 9.2748896,3.6346093 12.995256,-1.2947252 10.168285,4.195967 15.176313,0.58222615 10.856527,4.995718 16.70723,3.0186676 11.278461,5.9628012 17.45198,5.7981107 11.396597,7.0112867 17.344387,8.6735898 11.200438,8.0480122 16.394012,11.389606 10.707413,8.98086 Z"
         inkscape:transform-center-x="0.026973732"
         inkscape:transform-center-y="-0.02697372"
         transform="translate(5.2611026,6.2415732)" /><circle
         style="fill:#ffffff;fill-opacity:1;stroke:#000000;stroke-width:0;stroke-linecap:round;stroke-linejoin:round;paint-order:stroke fill markers;filter:url(#filter1327)"
         id="path1169"
         cx="13.251935"
         cy="13.25286"
         r="3.4057643" /></g><path
       style="fill:url(#radialGradient20654);fill-opacity:1;stroke:#000000;stroke-width:0;stroke-linecap:round;stroke-linejoin:round;paint-order:stroke fill markers;filter:url(#filter21029)"
       d="m 0.28690045,15.231726 c 1.25392295,-2.149582 0.217924,-0.901537 3.51952735,-2.513948 0.51203,-0.250061 1.05511,-0.459123 1.5083689,-0.804464 0.266624,-0.203141 0.393954,-0.542721 0.603348,-0.804463 0.103978,-0.129974 1.068508,-0.959518 1.206695,-1.005581 0.194935,-0.06498 0.766489,-0.01027 0.905023,0.100558 0.408293,0.326635 0.05546,0.402232 0.703905,0.402232 0.201116,0 0.408237,0.04878 0.603348,0 0.9305083,-0.232627 0.09021,-0.145665 1.0055793,-0.603348 0.08994,-0.04497 0.201893,0.01247 0.301674,0 0.169596,-0.0212 0.331874,-0.1005568 0.50279,-0.1005568 0.571596,0 1.409727,0.8329328 1.910601,1.1061378 0.465173,0.253731 1.278306,-0.06475 1.608927,0.100558 1.084181,0.54209 0.945312,2.387562 1.709485,2.715064 0.236951,0.101551 0.498725,0.03013 0.703905,0.201116 0.196757,0.163964 0.688149,0.695655 0.804464,0.905022 0.235367,0.42366 0.100558,2.040583 0.100558,2.513948 0,0.160806 0.06901,0.732492 0,0.905022 -0.224322,0.560803 -1.482532,1.516981 -2.111717,1.307253 -0.313186,-0.104396 -0.615205,-0.24415 -0.905022,-0.402232 -0.287775,-0.156968 -0.07855,-0.265852 -0.402231,-0.201116 -1.039399,0.20788 -1.998733,0.714721 -3.016738,1.00558 -0.225608,0.06446 -0.469271,0 -0.703906,0 -0.46927,0 -0.9565973,0.128918 -1.4078113,0 -0.472024,-0.134864 -0.609309,-0.606329 -1.00558,-0.804464 -0.08994,-0.04497 -0.203068,0.01972 -0.301674,0 -0.103938,-0.02079 -0.196741,-0.08557 -0.301673,-0.100558 -0.456348,-0.06519 -0.992538,0.09551 -1.407812,-0.201116 -0.205552,-0.146823 -0.453875,-0.57889 -0.703906,-0.703905 -0.304516,-0.152259 -0.5118169,-0.0274 -0.8044629,-0.100558 -0.719785,-0.179947 -1.608927,-0.640838 -1.608927,-1.50837 0,-0.04473 0.0312,-0.339827 0,-0.402231 -0.151772,-0.303544 -1.106138,-0.553794 -1.106138,-0.343053"
       id="path19224"
       transform="matrix(0.77457817,0,0,0.77457817,1.6594336,-2.6867586)" /><path
       style="fill:url(#radialGradient21400);fill-opacity:1;stroke:#000000;stroke-width:0;stroke-linecap:round;stroke-linejoin:round;paint-order:stroke fill markers;filter:url(#filter23071)"
       d="m 7.6468451,17.020139 c 0.779745,-0.653355 0.926628,-2.027363 1.7094853,-2.614506 0.414022,-0.310517 1.8726826,1.407811 2.4133896,1.407811 1.327225,0 1.526368,-0.743424 2.614506,-1.106137 0.32265,-0.10755 0.440354,0.09569 0.703906,0.201116 0.385237,0.154094 1.403996,-0.03619 1.910601,0 0.535106,0.03822 1.366829,0.146738 1.910601,0.201115 0.200118,0.02001 0.405476,0.03598 0.603347,0 0.380914,-0.06926 1.089643,-0.536097 1.50837,-0.201115 0.582793,0.466234 0.663393,1.065625 1.106137,1.508369 0.0237,0.0237 0.06704,0 0.100558,0 0.402232,0 0.804463,0 1.206695,0 0.50279,0 1.006693,-0.03345 1.508369,0 0.25428,0.01695 1.499747,0.287302 1.508369,0.301673 0.09287,0.154784 0.120391,0.34134 0.201116,0.50279 0.136086,0.272172 0.522102,0.800467 0.603348,1.206695 0.04791,0.239531 -0.130293,0.686426 -0.201116,0.804464 -0.926241,1.543735 -0.599177,0.640099 -1.608927,1.106137 -1.399615,0.645976 -0.221925,0.349591 -1.608927,1.106138 -0.130135,0.07098 -0.965836,0.100558 -1.00558,0.100558 -0.717095,0 -1.717671,-0.02828 -2.41339,0.100557 -0.479889,0.08887 -0.92924,0.306518 -1.407811,0.402232 -0.549324,0.109865 -1.525502,-0.176602 -2.011159,0 -0.605433,0.220158 -1.786346,1.209658 -2.614507,1.106138 -0.641191,-0.08015 -0.977557,-0.16606 -1.608926,-0.50279 -0.189378,-0.101002 -0.337908,-0.26483 -0.50279,-0.402232 -0.05758,-0.04798 -0.03352,-0.167596 -0.100558,-0.201116 -0.05996,-0.02998 -0.139498,0.02641 -0.201116,0 C 11.79119,21.971046 11.6389,21.841281 11.468046,21.746363 10.946989,21.456886 9.9550004,21.037779 9.4568884,20.539667 9.3714284,20.454207 9.3412304,20.323451 9.2557726,20.237993 9.0800206,20.062242 8.6787781,19.786292 8.4513081,19.634646 7.9414121,19.294715 7.4507241,18.790653 6.9429391,18.42795"
       id="path15405"
       transform="matrix(0.77457817,0,0,0.77457817,2.979648,-2.0266512)" /><path
       style="fill:#0000ff;stroke:url(#linearGradient44058);stroke-width:0.220897;stroke-linecap:round;stroke-linejoin:round;stroke-dasharray:none;stroke-opacity:1;paint-order:stroke fill markers"
       d="M 10.374,14.944997 8.8190989,18.721182"
       id="path34610" /><path
       style="fill:#0000ff;stroke:url(#linearGradient44050);stroke-width:0.220897;stroke-linecap:round;stroke-linejoin:round;stroke-dasharray:none;stroke-opacity:1;paint-order:stroke fill markers"
       d="m 19.259146,16.458032 -1.5549,3.776186"
       id="path34610-0" /><path
       style="fill:#0000ff;stroke:url(#linearGradient44066);stroke-width:0.220897;stroke-linecap:round;stroke-linejoin:round;stroke-dasharray:none;stroke-opacity:1;paint-order:stroke fill markers"
       d="m 15.594025,18.679318 -1.5549,3.776187"
       id="path34610-09" /><path
       style="fill:#0000ff;stroke:url(#linearGradient45746);stroke-width:0.220897;stroke-linecap:round;stroke-linejoin:round;stroke-dasharray:none;stroke-opacity:1;paint-order:stroke fill markers"
       d="m 16.482539,21.566991 -1.5549,3.776189"
       id="path34610-4" /><path
       style="fill:#0000ff;stroke:url(#linearGradient44074);stroke-width:0.220897;stroke-linecap:round;stroke-linejoin:round;stroke-dasharray:none;stroke-opacity:1;paint-order:stroke fill markers"
       d="m 12.92848,16.680161 -1.5549,3.776188"
       id="path34610-6" /><path
       style="fill:#0000ff;stroke:url(#linearGradient44082);stroke-width:0.220897;stroke-linecap:round;stroke-linejoin:round;stroke-dasharray:none;stroke-opacity:1;paint-order:stroke fill markers"
       d="m 8.9301639,20.012092 -1.5549,3.776185"
       id="path34610-6-2" /><path
       style="fill:#0000ff;stroke:url(#linearGradient44090);stroke-width:0.220897;stroke-linecap:round;stroke-linejoin:round;stroke-dasharray:none;stroke-opacity:1;paint-order:stroke fill markers"
       d="M 19.370213,20.900606 17.81531,24.676792"
       id="path34610-6-5" /><path
       style="fill:#0000ff;stroke:url(#linearGradient45754);stroke-width:0.220897;stroke-linecap:round;stroke-linejoin:round;stroke-dasharray:none;stroke-opacity:1;paint-order:stroke fill markers"
       d="m 13.372738,20.78954 -1.554899,3.776188"
       id="path34610-6-29" /><path
       style="fill:#0000ff;stroke:url(#linearGradient44042);stroke-width:0.220897;stroke-linecap:round;stroke-linejoin:round;stroke-dasharray:none;stroke-opacity:1;paint-order:stroke fill markers"
       d="m 6.5978129,17.013354 -1.5549,3.776185"
       id="path34610-8" /><path
       style="fill:#0000ff;stroke:url(#linearGradient45756);stroke-width:0.220897;stroke-linecap:round;stroke-linejoin:round;stroke-dasharray:none;stroke-opacity:1;paint-order:stroke fill markers"
       d="M 10.596128,22.455505 9.0412269,26.231691"
       id="path34610-1" /></g></svg>
